<svg width="2795" height="1417" xmlns="http://www.w3.org/2000/svg" xmlns:xlink="http://www.w3.org/1999/xlink" xml:space="preserve" overflow="hidden"><defs><linearGradient x1="2547.5" y1="694.5" x2="2547.5" y2="1510.5" gradientUnits="userSpaceOnUse" spreadMethod="reflect" id="fill0"><stop offset="0" stop-color="#FFC000" stop-opacity="1"/><stop offset="0.51" stop-color="#FFFFFF" stop-opacity="1"/><stop offset="1" stop-color="#0070C0" stop-opacity="1"/></linearGradient><linearGradient x1="2547" y1="694" x2="2547" y2="1516.39" gradientUnits="userSpaceOnUse" spreadMethod="reflect" id="stroke1"><stop offset="0" stop-color="#F0F8FD" stop-opacity="0"/><stop offset="0.1" stop-color="#F0F8FD" stop-opacity="0"/><stop offset="0.5" stop-color="#E8E8E8" stop-opacity="1"/><stop offset="0.9" stop-color="#FFFFFF" stop-opacity="0"/><stop offset="1" stop-color="#FFFFFF" stop-opacity="0"/></linearGradient><linearGradient x1="-3.04241e-06" y1="0.000180446" x2="822.392" y2="0.000180446" gradientUnits="userSpaceOnUse" spreadMethod="reflect" id="stroke2"><stop offset="0" stop-color="#F0F8FD" stop-opacity="0"/><stop offset="0.1" stop-color="#F0F8FD" stop-opacity="0"/><stop offset="0.5" stop-color="#E8E8E8" stop-opacity="1"/><stop offset="0.9" stop-color="#FFFFFF" stop-opacity="0"/><stop offset="1" stop-color="#FFFFFF" stop-opacity="0"/></linearGradient><linearGradient x1="-3.04241e-06" y1="0.000180446" x2="822.392" y2="0.000180446" gradientUnits="userSpaceOnUse" spreadMethod="reflect" id="stroke3"><stop offset="0" stop-color="#F0F8FD" stop-opacity="0"/><stop offset="0.1" stop-color="#F0F8FD" stop-opacity="0"/><stop offset="0.5" stop-color="#E8E8E8" stop-opacity="1"/><stop offset="0.9" stop-color="#FFFFFF" stop-opacity="0"/><stop offset="1" stop-color="#FFFFFF" stop-opacity="0"/></linearGradient></defs><g transform="translate(-165 -343)"><g><path d="M1356 1487C1356 1474.3 1395.85 1464 1445 1464 1494.15 1464 1534 1474.3 1534 1487 1534 1499.7 1494.15 1510 1445 1510 1395.85 1510 1356 1499.7 1356 1487Z" fill="#0070C0" fill-rule="evenodd" fill-opacity="1"/><path d="M486 717C486 704.298 525.847 694 575 694 624.153 694 664 704.298 664 717 664 729.703 624.153 740 575 740 525.847 740 486 729.703 486 717Z" fill="#FFC000" fill-rule="evenodd" fill-opacity="1"/><path d="M171.5 1102.5C171.5 877.168 353.944 694.5 579 694.5 804.056 694.5 986.5 877.168 986.5 1102.5 986.5 1327.83 804.056 1510.5 579 1510.5 353.944 1510.5 171.5 1327.83 171.5 1102.5Z" stroke="#000000" stroke-width="6.875" stroke-linecap="butt" stroke-linejoin="miter" stroke-miterlimit="8" stroke-opacity="1" fill="none" fill-rule="evenodd"/><path d="M1037.5 1102.5C1037.5 877.168 1220.17 694.5 1445.5 694.5 1670.83 694.5 1853.5 877.168 1853.5 1102.5 1853.5 1327.83 1670.83 1510.5 1445.5 1510.5 1220.17 1510.5 1037.5 1327.83 1037.5 1102.5Z" stroke="#000000" stroke-width="6.875" stroke-linecap="butt" stroke-linejoin="miter" stroke-miterlimit="8" stroke-opacity="1" fill="none" fill-rule="evenodd"/><text fill="#000000" fill-opacity="1" font-family="Consolas,Consolas_MSFontService,sans-serif" font-style="normal" font-variant="normal" font-weight="400" font-stretch="normal" font-size="128" text-anchor="start" direction="ltr" writing-mode="lr-tb" unicode-bidi="normal" text-decoration="none" transform="matrix(1 0 0 1 486.488 505)">Classical Bit</text><path d="M1451.88 1102 1451.88 1496.15 1438.13 1496.15 1438.13 1102ZM1475 1458.36 1445 1509.79 1415 1458.36C1413.09 1455.08 1414.19 1450.87 1417.47 1448.96 1420.75 1447.04 1424.96 1448.15 1426.88 1451.43L1426.88 1451.43 1450.94 1492.68 1439.06 1492.68 1463.12 1451.43C1465.04 1448.15 1469.25 1447.04 1472.53 1448.96 1475.81 1450.87 1476.91 1455.08 1475 1458.36Z" fill="#000000" fill-rule="nonzero" fill-opacity="1"/><path d="M566.125 1101.76 566.125 707.613 579.875 707.613 579.875 1101.76ZM542.999 745.398 573 693.968 603.001 745.398C604.914 748.678 603.806 752.888 600.526 754.801 597.247 756.714 593.037 755.606 591.124 752.327L591.124 752.327 567.061 711.077 578.938 711.077 554.876 752.327C552.963 755.606 548.753 756.714 545.473 754.801 542.193 752.888 541.086 748.678 542.999 745.398Z" fill="#000000" fill-rule="nonzero" fill-opacity="1"/><text fill="#FFC000" fill-opacity="1" font-family="Consolas,Consolas_MSFontService,sans-serif" font-style="normal" font-variant="normal" font-weight="400" font-stretch="normal" font-size="128" text-anchor="start" direction="ltr" writing-mode="lr-tb" unicode-bidi="normal" text-decoration="none" transform="matrix(1 0 0 1 536.857 664)">0</text><text fill="#0070C0" fill-opacity="1" font-family="Consolas,Consolas_MSFontService,sans-serif" font-style="normal" font-variant="normal" font-weight="400" font-stretch="normal" font-size="128" text-anchor="start" direction="ltr" writing-mode="lr-tb" unicode-bidi="normal" text-decoration="none" transform="matrix(1 0 0 1 1409.27 1647)">1</text><path d="M2139.5 1102.5C2139.5 877.168 2322.17 694.5 2547.5 694.5 2772.83 694.5 2955.5 877.168 2955.5 1102.5 2955.5 1327.83 2772.83 1510.5 2547.5 1510.5 2322.17 1510.5 2139.5 1327.83 2139.5 1102.5Z" stroke="#000000" stroke-width="6.875" stroke-linecap="butt" stroke-linejoin="miter" stroke-miterlimit="8" stroke-opacity="1" fill="url(#fill0)" fill-rule="evenodd"/><text fill="#000000" fill-opacity="1" font-family="Consolas,Consolas_MSFontService,sans-serif" font-style="normal" font-variant="normal" font-weight="400" font-stretch="normal" font-size="128" text-anchor="start" direction="ltr" writing-mode="lr-tb" unicode-bidi="normal" text-decoration="none" transform="matrix(1 0 0 1 2368.85 505)">Qubit</text><text fill="#FFC000" fill-opacity="1" font-family="Consolas,Consolas_MSFontService,sans-serif" font-style="normal" font-variant="normal" font-weight="400" font-stretch="normal" font-size="128" text-anchor="start" direction="ltr" writing-mode="lr-tb" unicode-bidi="normal" text-decoration="none" transform="matrix(1 0 0 1 2440.01 664)">|0&gt;</text><text fill="#0070C0" fill-opacity="1" font-family="Consolas,Consolas_MSFontService,sans-serif" font-style="normal" font-variant="normal" font-weight="400" font-stretch="normal" font-size="128" text-anchor="start" direction="ltr" writing-mode="lr-tb" unicode-bidi="normal" text-decoration="none" transform="matrix(1 0 0 1 2440.01 1647)">|1&gt;</text><path d="M2547 694 2547 1509.52" stroke="url(#stroke1)" stroke-width="13.75" stroke-linecap="butt" stroke-linejoin="miter" stroke-miterlimit="8" fill="none" fill-rule="evenodd"/><path d="M0 0 815.517 0.000360892" stroke="url(#stroke2)" stroke-width="13.75" stroke-linecap="butt" stroke-linejoin="miter" stroke-miterlimit="8" fill="none" fill-rule="evenodd" transform="matrix(-0.906308 -0.422618 -0.422618 0.906308 2916.62 1276.12)"/><path d="M0 0 815.517 0.000360892" stroke="url(#stroke3)" stroke-width="13.75" stroke-linecap="butt" stroke-linejoin="miter" stroke-miterlimit="8" fill="none" fill-rule="evenodd" transform="matrix(-0.906308 0.422618 0.422618 0.906308 2916.62 929.571)"/><path d="M2557.91 1097.19 2830.62 1375.79 2820.8 1385.41 2548.09 1106.81ZM2820.72 1332.61 2835.25 1390.35 2777.84 1374.58C2774.18 1373.58 2772.02 1369.8 2773.03 1366.13 2774.03 1362.47 2777.82 1360.32 2781.48 1361.33L2827.53 1373.97 2819.04 1382.28 2807.38 1335.97 2807.38 1335.97C2806.45 1332.29 2808.69 1328.55 2812.37 1327.62 2816.05 1326.7 2819.79 1328.93 2820.72 1332.61Z" fill="#000000" fill-rule="nonzero" fill-opacity="1"/></g></g></svg>